<?xml version="1.0" standalone="no"?>
<!DOCTYPE svg PUBLIC "-//W3C//DTD SVG 20010904//EN"
 "http://www.w3.org/TR/2001/REC-SVG-20010904/DTD/svg10.dtd">
<svg version="1.0" xmlns="http://www.w3.org/2000/svg"
 width="5400.000000pt" height="2368.000000pt" viewBox="0 0 5400.000000 2368.000000"
 preserveAspectRatio="xMidYMid meet">

<g transform="translate(0.000000,2368.000000) scale(0.100000,-0.100000)"
fill="#f3f4f6" stroke="none">
<path d="M23210 23667 c-3 -3 -147 -7 -321 -11 -174 -4 -336 -9 -360 -11 -24
-2 -136 -6 -249 -10 -113 -3 -230 -8 -260 -10 -30 -2 -111 -7 -180 -10 -69 -3
-190 -10 -270 -15 -80 -6 -185 -12 -235 -16 -518 -33 -1351 -118 -1844 -190
-165 -23 -572 -92 -577 -97 -1 -1 268 -1 599 -1 581 2 742 -2 1097 -26 862
-57 1604 -184 2230 -380 533 -167 874 -364 1562 -902 135 -106 345 -270 465
-364 931 -729 1647 -1177 2516 -1573 1547 -705 3477 -1146 5772 -1316 125 -9
184 -13 430 -30 653 -42 1281 -60 2150 -60 873 0 1583 18 2305 60 47 3 128 7
180 10 132 7 410 24 500 30 382 26 908 67 1160 90 258 24 920 89 1020 100 25
3 146 16 270 30 1054 118 2332 299 3240 460 460 82 562 103 515 105 -87 5
-207 7 -600 14 -555 9 -2710 49 -3250 61 -121 3 -348 7 -505 10 -635 12 -1900
38 -2450 50 -129 3 -440 10 -690 15 -250 5 -552 12 -670 15 -118 3 -323 7
-455 10 -132 3 -330 7 -440 10 -110 3 -303 7 -430 10 -126 3 -304 7 -395 10
-91 3 -266 7 -390 10 -429 11 -1528 42 -1725 50 -66 3 -208 7 -315 10 -720 21
-1179 70 -1750 186 -322 65 -798 194 -1100 297 l-85 29 45 6 c25 4 133 16 240
27 225 24 430 53 1010 144 1126 177 1588 240 2382 326 430 46 1110 106 1418
125 52 3 122 8 155 10 431 32 1880 43 2415 17 1542 -72 2793 -200 4425 -452
882 -136 2293 -404 2825 -536 58 -15 -5 19 -195 104 -975 437 -2103 828 -3535
1226 -276 77 -441 120 -990 263 -447 116 -1560 376 -2069 483 -102 21 -292 61
-421 89 -316 67 -1193 241 -1465 291 -121 22 -245 47 -275 55 -104 27 -1064
197 -1750 310 -1594 261 -3283 479 -4805 620 -570 53 -1439 120 -1945 150 -52
3 -131 8 -175 11 -189 11 -654 34 -815 39 -96 3 -202 8 -235 10 -33 3 -175 7
-315 11 -140 3 -282 8 -315 10 -79 6 -2070 16 -2075 11z"/>
<path d="M18420 22789 c-1321 -58 -2653 -327 -3855 -777 -1314 -492 -2530
-1209 -3555 -2096 -439 -380 -887 -836 -1159 -1180 -137 -174 -123 -168 -116
-41 7 129 -8 355 -30 440 -50 194 -171 307 -373 350 -95 20 -313 20 -451 0
-261 -38 -594 -141 -812 -251 -537 -270 -851 -659 -876 -1084 -16 -273 115
-440 406 -517 82 -22 125 -26 291 -31 l195 -5 -187 -38 c-1247 -250 -2605
-829 -3789 -1615 -307 -204 -715 -503 -727 -533 -1 -4 57 12 130 36 767 252
1788 472 3143 677 372 56 1036 146 1490 200 1077 130 2014 221 3725 361 86 7
695 53 790 60 41 3 140 9 220 15 80 5 179 12 220 15 41 3 107 8 145 10 74 5
477 32 605 40 41 2 111 7 155 10 68 4 268 17 660 40 50 3 126 8 170 11 111 6
935 52 1070 59 61 3 196 10 300 15 105 5 237 12 295 15 126 6 893 42 1070 50
69 3 172 8 230 10 91 5 519 22 955 40 72 3 184 7 250 10 177 8 1294 48 1680
60 699 23 1908 56 2545 70 135 3 333 7 440 10 107 3 443 10 745 15 303 5 645
12 760 15 116 3 478 8 805 11 327 4 596 8 598 9 4 4 -6142 15 -11065 20 -4527
5 -4292 2 -4498 57 -213 56 -341 179 -386 368 -18 77 -15 289 5 373 63 265
339 700 730 1147 132 151 526 545 696 696 1547 1369 3496 2223 5475 2399 341
30 461 34 930 31 327 -3 523 -9 645 -20 217 -20 442 -46 453 -53 4 -2 -12 -19
-35 -35 -189 -137 -576 -496 -793 -738 -536 -598 -952 -1269 -1249 -2016 -68
-170 -190 -528 -231 -676 l-16 -56 -82 51 c-301 187 -744 302 -1097 283 -585
-30 -1092 -299 -1600 -851 l-82 -90 37 70 c155 290 428 598 642 722 45 27 82
51 83 54 0 10 -79 28 -185 40 -130 15 -368 6 -515 -20 -399 -70 -786 -236
-1195 -512 -239 -161 -476 -361 -730 -614 -140 -140 -389 -414 -382 -421 1 -2
837 6 1857 16 1020 10 2125 21 2455 24 330 4 832 8 1115 11 1092 11 2572 25
3180 30 349 3 825 8 1057 11 l421 6 187 277 c103 152 190 282 192 289 4 10 -9
12 -58 8 -35 -3 -149 -8 -254 -11 -104 -3 -251 -8 -325 -10 -74 -3 -322 -12
-550 -20 -428 -15 -603 -21 -845 -30 -296 -11 -947 -35 -1095 -40 -185 -6
-381 -14 -545 -20 -467 -18 -737 -27 -741 -22 -3 2 51 81 119 173 370 504 745
1064 1014 1514 310 519 489 906 550 1183 26 120 26 553 0 682 -25 121 -69 225
-118 275 l-39 40 141 168 c77 92 146 171 153 176 15 11 182 -25 442 -95 873
-233 1634 -648 2217 -1209 282 -271 549 -618 727 -945 70 -130 160 -330 160
-357 0 -8 -66 -154 -146 -324 -80 -170 -179 -379 -219 -464 -99 -211 -217
-461 -375 -795 -73 -154 -161 -343 -197 -420 -63 -137 -63 -139 -30 -105 19
19 403 445 852 945 450 501 829 922 843 937 l25 27 -23 88 c-109 421 -379 956
-678 1343 -503 652 -1167 1148 -1972 1474 -633 256 -1278 397 -2100 462 -232
18 -839 25 -1110 13z m-9247 -3604 c145 -38 209 -119 265 -340 41 -158 56
-277 50 -400 -15 -292 -134 -358 -648 -360 -147 0 -263 5 -310 13 -298 50
-481 147 -551 289 -20 40 -24 63 -24 143 0 88 3 101 34 164 114 232 491 446
871 495 108 14 251 12 313 -4z"/>
<path d="M28776 18469 c-12 -225 15 -553 69 -839 14 -74 32 -175 41 -225 52
-318 199 -651 412 -939 97 -130 328 -361 462 -460 286 -212 618 -366 1010
-467 156 -41 434 -92 568 -105 39 -3 72 -9 72 -13 0 -3 -71 -23 -157 -44 -397
-97 -849 -272 -1180 -458 -853 -477 -1384 -1145 -1638 -2058 -20 -73 -35 -134
-33 -137 3 -2 1838 -3 4080 -2 l4075 3 -151 165 c-456 500 -1063 1168 -1076
1185 -21 26 -17 23 175 -110 88 -61 286 -199 440 -307 154 -107 541 -376 860
-598 319 -222 654 -455 745 -518 91 -64 224 -156 295 -206 72 -49 154 -107
184 -128 l54 -38 6188 0 6187 0 70 98 c106 147 217 330 292 481 195 394 230
589 176 988 -26 190 -109 696 -187 1133 -55 314 -210 1144 -214 1148 -9 9
-363 131 -630 217 -1327 426 -2756 744 -3970 884 -143 16 -296 33 -340 36 -44
3 -91 8 -105 10 -14 2 -77 7 -140 11 -63 3 -123 8 -133 10 -144 26 -1327 26
-1618 -1 -469 -43 -578 -59 -1334 -196 -432 -79 -1231 -236 -1765 -349 -107
-22 -303 -63 -435 -90 -132 -27 -349 -72 -481 -99 -1519 -316 -2640 -499
-3674 -601 -288 -28 -447 -40 -820 -64 -238 -15 -564 -21 -1130 -20 l-625 1
-145 27 c-1107 206 -2110 448 -2777 671 -595 199 -928 372 -1092 566 -282 333
-508 904 -572 1446 -7 54 -15 104 -19 112 -4 8 -11 -46 -14 -120z m21539
-5484 c-5 -2 -91 -11 -190 -20 -99 -8 -200 -17 -225 -20 -61 -6 -610 -52 -785
-65 -77 -6 -165 -13 -195 -15 -30 -3 -257 -18 -505 -35 -247 -16 -486 -32
-530 -35 -44 -3 -199 -12 -345 -20 -382 -21 -434 -24 -545 -30 -55 -3 -140 -8
-190 -10 -102 -6 -430 -20 -770 -35 -126 -5 -336 -12 -465 -16 -129 -3 -260
-7 -290 -9 -421 -24 -2728 -24 -3120 0 -30 2 -134 6 -230 9 -250 9 -843 43
-1055 61 -756 63 -1222 118 -1705 200 -113 20 -209 37 -215 39 -5 3 2551 4
5680 4 3130 0 5686 -1 5680 -3z" />
<path d="M50820 15796 c0 -3 43 -204 95 -448 156 -732 302 -1433 334 -1602 16
-87 33 -162 39 -168 16 -16 331 -21 761 -10 227 6 415 12 417 14 12 13 -75
337 -130 483 -263 704 -743 1280 -1394 1671 -99 59 -122 71 -122 60z"/>
<path d="M3060 15066 c-145 -31 -260 -94 -365 -200 -100 -100 -173 -221 -258
-426 -19 -47 -108 -245 -197 -440 -242 -532 -353 -817 -454 -1172 -207 -724
-299 -1477 -300 -2463 -1 -538 18 -770 100 -1215 169 -925 610 -1830 1178
-2418 60 -62 107 -114 105 -116 -2 -2 -96 -6 -209 -10 -113 -4 -227 -9 -255
-11 -27 -3 -124 -9 -215 -15 -414 -26 -847 -73 -1162 -125 -708 -118 -1050
-276 -1014 -469 19 -102 162 -160 461 -185 107 -10 930 -6 1110 4 109 6 744
32 980 40 94 3 215 7 270 10 381 18 1308 26 1796 15 294 -6 563 -13 599 -15
36 -2 128 -7 205 -10 1550 -66 3302 -335 5170 -795 2593 -638 4957 -1535 6678
-2534 465 -270 912 -569 1292 -866 429 -334 778 -569 1170 -785 713 -394 1488
-654 2295 -770 461 -65 699 -80 1320 -80 487 0 649 5 990 30 735 55 1223 112
2940 345 778 106 1126 148 1590 195 85 8 175 17 200 20 187 20 728 66 1045 90
39 3 95 8 125 10 46 4 300 22 710 50 93 6 525 33 640 40 47 2 128 7 180 10
323 19 920 48 1210 60 342 14 621 25 775 30 94 3 233 8 310 10 486 18 1331 38
2145 52 521 8 2599 8 3055 -1 847 -16 1445 -32 1905 -51 69 -3 188 -7 265 -10
667 -26 1808 -98 2215 -140 25 -3 70 -7 100 -10 273 -26 518 -52 810 -85 576
-66 1175 -120 1595 -145 55 -3 132 -8 170 -10 604 -40 1800 -40 2295 0 30 2
91 7 135 10 1223 90 2195 382 2195 660 0 78 -53 131 -210 210 -224 112 -757
262 -1675 470 -138 31 -705 162 -980 227 -938 219 -1810 561 -2385 936 -125
81 -320 229 -320 243 0 5 28 9 63 9 34 0 116 5 182 11 661 56 1114 312 1340
754 70 137 124 322 125 423 0 25 5 45 13 47 14 5 509 66 2322 286 275 33 698
84 940 114 242 30 575 70 740 90 165 19 315 38 334 41 l33 5 -6 77 c-33 385
-45 821 -27 899 33 135 195 219 501 259 133 18 502 24 685 12 124 -8 93 0
-175 46 -395 68 -844 123 -1310 161 -283 23 -298 24 -405 30 -55 3 -129 8
-165 10 -173 14 -622 32 -1085 45 -346 9 -1905 9 -2340 -1 -590 -13 -1311 -36
-1660 -54 -55 -2 -156 -7 -225 -10 -111 -5 -502 -25 -800 -40 -58 -3 -134 -8
-170 -10 -36 -2 -110 -7 -165 -10 -171 -9 -756 -47 -945 -60 -36 -3 -168 -12
-295 -20 -239 -16 -596 -42 -700 -50 -33 -3 -229 -19 -435 -35 -206 -17 -449
-37 -540 -45 -91 -8 -370 -33 -620 -55 -1553 -138 -3483 -361 -3898 -451 l-95
-21 -76 32 c-303 126 -626 355 -853 605 -300 332 -513 727 -653 1215 -43 150
-95 385 -95 429 0 11 -4 21 -9 21 -15 0 -26 -220 -25 -500 2 -554 78 -991 243
-1403 160 -400 442 -717 776 -873 44 -21 82 -39 84 -40 1 -2 -6 -31 -17 -66
-88 -270 -70 -653 47 -1063 39 -135 106 -327 150 -428 12 -27 21 -51 21 -54 0
-5 -326 -4 -3290 17 -2788 20 -3855 31 -5035 55 -470 10 -720 36 -974 101
-394 101 -668 287 -878 595 -209 308 -359 726 -518 1444 -83 378 -115 542
-290 1505 -142 784 -290 1572 -341 1815 -297 1416 -886 2622 -1653 3385 -278
276 -542 469 -846 620 -363 180 -715 255 -1068 229 -936 -70 -1706 -855 -2168
-2209 -212 -620 -339 -1329 -389 -2165 -14 -233 -15 -1024 -1 -1275 56 -1008
217 -2109 436 -2980 20 -78 35 -144 33 -145 -2 -2 -75 26 -163 61 -1272 514
-2981 1026 -4380 1314 -544 112 -1359 262 -2030 374 -558 93 -1310 214 -1700
272 -55 8 -170 26 -255 39 -334 53 -1042 157 -1975 291 -1654 237 -1864 272
-2115 350 -286 90 -432 206 -510 407 -42 106 -56 173 -80 377 -30 249 -64 489
-111 765 -41 242 -106 585 -112 591 -2 2 -1 -59 1 -136 16 -486 -115 -1024
-361 -1485 -151 -283 -285 -465 -501 -680 -265 -264 -473 -393 -764 -472 -191
-52 -435 -31 -655 56 -563 224 -1138 829 -1495 1571 -91 188 -117 253 -179
434 -99 293 -181 735 -208 1116 -4 52 -9 109 -11 125 -12 88 -16 730 -5 915
53 918 251 1609 597 2091 148 206 339 368 558 474 446 217 886 261 1286 129
215 -71 461 -224 628 -390 99 -98 98 -106 12 156 -261 797 -610 1333 -1045
1607 -173 109 -420 164 -585 129z m18856 -3591 c558 -98 1074 -555 1489 -1323
349 -645 640 -1591 769 -2502 112 -788 121 -1380 30 -2060 -96 -720 -301
-1441 -582 -2048 -274 -590 -620 -1046 -977 -1286 -113 -77 -279 -152 -401
-183 -101 -26 -123 -28 -304 -28 -178 1 -204 3 -302 28 -471 118 -910 441
-1287 947 -281 376 -515 871 -639 1351 -56 216 -259 1248 -321 1629 -100 623
-124 1205 -71 1730 51 499 163 1010 358 1630 115 366 274 734 430 998 394 663
925 1052 1537 1125 75 9 190 6 271 -8z m17224 -6159 c235 -12 563 -62 633 -98
80 -40 181 -168 239 -303 36 -83 65 -201 78 -324 20 -187 -18 -414 -99 -587
-126 -268 -420 -397 -1066 -468 -278 -31 -1246 -25 -1371 8 -66 17 -144 60
-200 109 -111 97 -220 331 -250 533 -3 27 -8 52 -10 56 -2 3 -37 -5 -76 -19
-177 -59 -389 -99 -472 -88 -126 16 -183 99 -174 250 7 108 50 188 163 301
101 101 168 148 335 233 405 207 1141 375 1740 397 91 4 166 7 167 8 4 3 251
-3 363 -8z" fill="#4f46e5"/>
<path d="M21215 11141 c-250 -71 -510 -291 -762 -642 -238 -333 -393 -649
-448 -914 -20 -97 -23 -251 -5 -326 26 -112 65 -177 174 -284 207 -204 717
-589 1571 -1187 398 -278 475 -330 503 -337 43 -12 80 7 105 53 20 38 22 54
22 211 0 94 -6 211 -14 260 -44 298 -143 749 -267 1215 -42 157 -85 318 -95
358 -11 40 -94 332 -185 650 -91 317 -176 624 -190 680 -29 124 -43 153 -97
210 -69 71 -183 90 -312 53z"/>
<path d="M22372 10872 c-31 -31 -51 -112 -63 -252 -27 -323 37 -901 161 -1457
115 -515 160 -918 161 -1460 1 -139 4 -253 9 -253 4 0 82 32 171 71 244 105
542 253 635 315 140 93 218 198 260 354 24 87 24 309 0 440 -114 626 -618
1617 -1060 2087 -137 145 -231 198 -274 155z"/>
<path d="M19560 8032 c-43 -23 -95 -106 -110 -176 -27 -126 -33 -218 -27 -456
11 -451 78 -1066 163 -1490 151 -761 363 -1200 577 -1200 104 0 281 140 669
530 455 457 1189 1272 1208 1340 28 100 0 231 -73 341 -48 72 -200 218 -306
293 -349 248 -959 520 -1681 747 -287 91 -361 103 -420 71z"/>
<path d="M23285 6843 c-212 -18 -369 -67 -443 -137 -68 -63 -68 -61 -82 -600
-7 -260 -7 -486 0 -720 11 -359 11 -366 36 -651 57 -664 193 -1108 353 -1156
97 -29 188 52 284 252 105 218 152 380 256 889 193 946 278 1523 269 1830 -6
221 -22 243 -208 275 -89 15 -374 27 -465 18z"/>
<path d="M22425 6123 c-54 -10 -87 -38 -228 -192 -951 -1037 -1610 -1914
-1726 -2295 -25 -82 -27 -175 -5 -219 9 -18 38 -59 65 -92 237 -297 850 -717
1274 -873 235 -86 379 -93 456 -24 108 98 176 670 224 1892 16 418 20 511 31
685 3 50 12 180 21 290 20 259 22 599 4 680 -24 109 -62 157 -116 148z"/>
<path d="M38820 5079 c-196 -17 -516 -74 -735 -129 -109 -27 -251 -99 -318
-160 -116 -106 -158 -210 -158 -390 0 -239 73 -391 241 -499 202 -131 570
-155 1050 -71 246 44 412 95 580 177 99 49 126 68 195 138 147 146 184 289
136 522 -24 113 -59 180 -129 244 -86 78 -194 125 -362 155 -100 18 -365 25
-500 13z"/>
<path d="M10547 13974 c-1 -1 -252 -4 -557 -8 -305 -3 -611 -9 -680 -11 -69
-3 -269 -10 -445 -15 -176 -6 -365 -12 -420 -15 -55 -3 -154 -7 -220 -10 -66
-3 -165 -8 -220 -10 -161 -8 -916 -55 -965 -60 -25 -2 -83 -7 -130 -10 -47 -3
-105 -8 -130 -10 -25 -2 -79 -7 -120 -10 -490 -39 -1177 -124 -1192 -148 -5
-7 -6 -91 -3 -187 20 -629 190 -1495 516 -2625 155 -537 481 -1530 513 -1561
6 -6 115 -21 241 -33 127 -12 248 -24 270 -27 213 -24 962 -94 974 -91 9 2 -6
7 -34 11 -27 4 -252 41 -500 81 -247 41 -530 86 -628 101 l-177 28 -10 36
c-17 66 -59 315 -79 470 -58 453 -53 1041 15 1510 71 498 238 1101 409 1476
l32 71 69 6 c38 4 155 16 259 27 758 80 1518 151 2840 265 33 3 265 21 515 40
250 19 484 37 520 40 59 5 515 37 700 50 41 3 138 9 215 15 123 9 446 30 680
45 44 3 154 10 245 15 91 5 201 12 245 15 44 3 240 14 435 25 195 11 391 22
435 25 169 10 681 36 980 50 61 3 153 8 205 10 290 16 1320 58 1805 75 154 5
368 12 475 15 107 3 339 10 515 15 176 6 390 10 475 11 86 0 146 4 135 8 -11
4 -108 13 -215 20 -107 6 -217 14 -245 16 -27 2 -88 7 -135 10 -172 11 -728
45 -820 50 -52 3 -129 7 -170 10 -41 3 -158 9 -260 15 -102 5 -223 12 -270 15
-47 2 -137 7 -200 10 -106 5 -156 7 -400 20 -108 6 -242 12 -660 30 -690 30
-899 38 -1285 50 -93 3 -244 8 -335 10 -338 11 -938 25 -1360 31 -391 6 -1847
13 -1853 8z"/>
<path d="M3445 13434 c-163 -24 -346 -84 -540 -179 -298 -145 -479 -311 -562
-516 -22 -55 -25 -74 -21 -159 3 -84 8 -105 36 -161 17 -35 52 -91 76 -123
155 -205 651 -685 1266 -1226 202 -177 427 -370 432 -370 9 0 -50 724 -88
1060 -35 315 -69 554 -109 770 -19 102 -46 264 -60 360 -54 364 -100 476 -222
526 -35 15 -157 25 -208 18z"/>
<path d="M4452 12919 c-30 -11 -58 -76 -74 -170 -16 -95 -16 -909 1 -1264 26
-551 72 -900 125 -944 25 -21 181 -34 431 -35 273 -1 369 11 437 57 55 38 62
63 43 165 -51 274 -226 881 -374 1295 -130 364 -194 507 -286 637 -147 207
-238 285 -303 259z"/>
<path d="M16345 12709 c-159 -9 -351 -19 -425 -23 -74 -4 -162 -9 -195 -11
-33 -3 -152 -9 -265 -15 -113 -6 -245 -12 -295 -15 -49 -3 -214 -12 -365 -20
-151 -8 -313 -17 -360 -20 -47 -2 -130 -7 -185 -10 -55 -3 -221 -12 -370 -20
-148 -8 -315 -17 -370 -20 -108 -6 -205 -11 -355 -20 -52 -3 -257 -14 -455
-25 -198 -11 -396 -22 -440 -25 -44 -2 -127 -7 -185 -10 -106 -5 -394 -20
-570 -30 -52 -3 -219 -12 -370 -20 -262 -14 -356 -19 -550 -30 -47 -3 -209
-12 -360 -20 -362 -19 -460 -25 -550 -30 -41 -3 -118 -7 -170 -10 -52 -3 -257
-14 -455 -25 -198 -11 -405 -22 -460 -25 -608 -32 -647 -35 -675 -52 -56 -36
-201 -194 -260 -283 -68 -104 -120 -201 -120 -224 0 -11 8 -14 28 -11 15 3
358 41 762 85 404 44 1142 125 1640 180 1651 182 3258 358 4875 536 226 24
426 47 445 49 19 2 226 25 460 51 1073 116 1115 123 595 93z"/>
<path d="M24250 12466 c0 -3 23 -34 51 -68 207 -257 530 -824 759 -1333 589
-1312 1040 -3065 1284 -4984 19 -150 38 -276 42 -280 9 -9 -3 906 -15 1074 -6
77 -13 183 -16 235 -21 332 -81 849 -141 1210 -253 1536 -725 2729 -1417 3589
-135 167 -547 587 -547 557z"/>
<path d="M18180 12243 c-374 -17 -778 -57 -1035 -103 -304 -55 -482 -94 -692
-154 -1358 -384 -2333 -1151 -2907 -2286 -201 -396 -371 -934 -402 -1269 l-7
-68 74 -7 c147 -13 186 -18 289 -32 496 -70 1107 -246 1771 -512 911 -365
2108 -995 3034 -1597 66 -42 124 -79 131 -82 6 -2 -4 73 -28 194 -283 1451
-238 3146 128 4778 77 346 194 776 278 1024 20 57 33 108 30 113 -5 8 -495 8
-664 1z"/>
<path d="M28200 12065 c0 -5 -20 -171 -44 -369 -25 -199 -93 -752 -151 -1231
-194 -1593 -305 -2497 -345 -2829 -22 -181 -39 -330 -37 -332 2 -2 12 31 22
74 84 361 271 741 512 1042 88 110 265 288 373 374 276 220 632 395 1005 494
244 65 322 98 426 178 272 209 222 578 -144 1074 -133 180 -271 335 -506 570
-300 299 -541 514 -891 791 -192 152 -220 173 -220 164z"/>
<path d="M1954 11576 c-111 -50 -129 -193 -121 -970 8 -771 40 -1132 117
-1311 79 -184 227 -225 490 -133 262 92 823 411 1100 627 124 96 253 223 301
298 35 53 44 76 47 123 3 39 -1 66 -11 87 -62 119 -302 326 -727 624 -291 205
-880 581 -987 631 -75 35 -163 45 -209 24z"/>
<path d="M52755 11449 c-171 -25 -355 -114 -514 -248 -79 -67 -190 -197 -271
-319 -66 -99 -226 -400 -217 -409 2 -2 64 3 138 12 74 8 386 42 694 76 308 33
561 62 563 63 1 2 -9 49 -22 104 -71 292 -53 488 54 605 28 30 50 57 50 59 0
3 -33 15 -72 26 -134 40 -270 50 -403 31z"/>
<path d="M35205 10713 c-162 -7 -443 -35 -551 -53 -433 -74 -765 -323 -948
-711 -43 -90 -96 -251 -96 -290 0 -18 10 -19 203 -18 708 2 4257 36 4262 41 7
6 -5 33 -160 358 -59 124 -118 248 -131 277 l-23 52 141 123 141 123 -59 6
c-32 4 -104 10 -159 13 -55 4 -122 9 -150 11 -27 3 -165 12 -305 20 -140 8
-291 17 -335 20 -44 2 -161 7 -260 11 -99 3 -191 8 -205 11 -29 5 -1262 11
-1365 6z"/>
<path d="M4540 10017 c-48 -15 -113 -83 -128 -133 -28 -96 -10 -210 60 -374
75 -175 107 -313 129 -560 14 -150 7 -301 -26 -585 -61 -526 -58 -777 10 -892
37 -63 119 -92 175 -63 203 107 585 762 738 1265 59 192 76 296 76 460 0 123
-4 164 -22 229 -80 289 -290 495 -616 606 -163 55 -314 73 -396 47z"/>
<path d="M3655 9418 c-805 -809 -1185 -1273 -1185 -1447 0 -206 540 -742 960
-953 96 -48 226 -88 284 -88 120 0 217 97 289 290 77 206 144 596 162 935 3
61 8 133 11 160 3 28 5 266 5 530 -1 777 -21 933 -121 943 -32 3 -50 -13 -405
-370z"/>
<path d="M53795 8260 c23 -262 27 -374 16 -506 -18 -224 -53 -378 -121 -536
-115 -264 -290 -459 -540 -598 -89 -49 -59 -45 84 11 409 162 656 415 733 750
22 101 23 324 0 444 -24 127 -80 294 -132 400 l-45 90 5 -55z"/>
<path d="M44170 7929 c-224 -7 -610 -26 -705 -34 -27 -2 -90 -7 -140 -10 -510
-34 -1083 -102 -1860 -220 -722 -110 -1508 -202 -2160 -255 -612 -49 -822 -57
-1420 -57 -596 0 -783 9 -1185 58 -604 75 -1070 229 -1274 422 -56 53 -57 53
-50 23 13 -63 66 -218 115 -338 132 -322 361 -701 601 -992 87 -105 296 -330
372 -398 l72 -66 80 19 c513 123 1952 381 2859 513 1004 146 2184 285 2980
351 33 2 116 9 185 15 69 5 152 12 185 15 83 7 601 44 705 50 47 3 114 8 150
10 81 6 560 32 735 40 72 3 175 8 230 10 895 41 2617 41 3365 0 47 -2 146 -7
220 -10 1255 -55 2685 -217 3893 -441 165 -30 301 -54 303 -51 2 2 -69 31
-159 65 -896 339 -2148 679 -3287 892 -820 153 -1599 259 -2395 324 -99 8
-218 18 -265 21 -47 3 -114 7 -150 10 -99 7 -243 14 -485 26 -271 13 -1209 18
-1515 8z"/>
<path d="M7200 7855 c8 -2 105 -11 215 -20 1477 -119 3589 -433 5130 -763 479
-103 595 -129 825 -182 951 -221 1628 -401 2476 -655 673 -203 1623 -526 2149
-732 182 -71 186 -72 84 -19 -201 105 -764 346 -1269 544 -1499 588 -3149
1065 -4780 1381 -815 158 -1796 296 -2520 356 -36 3 -85 8 -110 10 -158 16
-702 52 -925 61 -88 3 -178 7 -200 9 -58 6 -1093 15 -1075 10z"/>
<path d="M27545 6828 c-21 -59 -77 -479 -96 -720 -15 -198 -6 -694 15 -848 36
-251 92 -451 175 -626 111 -233 264 -396 468 -498 174 -87 420 -123 1053 -156
901 -46 2782 -40 4730 15 700 20 1191 35 1270 40 41 2 108 4 149 5 93 0 88 8
-10 16 -99 7 -521 43 -584 49 -1932 192 -3624 544 -4840 1007 -823 314 -1430
665 -1834 1061 -209 206 -329 363 -449 590 -23 43 -44 73 -47 65z"/>
<path d="M51898 6045 c-216 -36 -329 -111 -357 -235 -16 -68 -13 -265 4 -339
35 -147 125 -255 242 -291 68 -21 171 -25 253 -11 599 107 749 148 843 231 76
66 102 173 78 315 -31 178 -118 258 -325 301 -194 41 -577 56 -738 29z"/>
</g>
</svg>
