<?xml version="1.0" standalone="no"?>
<!DOCTYPE svg PUBLIC "-//W3C//DTD SVG 20010904//EN"
 "http://www.w3.org/TR/2001/REC-SVG-20010904/DTD/svg10.dtd">
<svg version="1.0" xmlns="http://www.w3.org/2000/svg"
 width="161.000000pt" height="153.000000pt" viewBox="0 0 161.000000 153.000000"
 preserveAspectRatio="xMidYMid meet">

<g transform="translate(0.000000,153.000000) scale(0.100000,-0.100000)"
fill="#4f46e5" stroke="none">
<path d="M1123 1458 c-6 -7 -15 -26 -20 -43 -14 -43 -52 -54 -91 -27 -40 29
-51 28 -89 -9 -37 -34 -40 -46 -18 -75 30 -39 6 -94 -41 -94 -35 0 -53 -23
-56 -70 -3 -44 -2 -45 40 -64 54 -25 63 -53 32 -108 l-22 -40 36 -36 c38 -39
34 -38 108 -7 23 9 68 -36 68 -69 0 -30 25 -46 75 -46 33 0 37 4 55 45 24 55
55 67 99 36 39 -28 52 -27 90 13 32 33 32 34 17 64 -30 59 -16 88 53 107 35
10 36 12 39 63 3 49 1 53 -25 62 -67 24 -79 57 -43 115 l21 34 -35 38 c-37 41
-32 40 -108 8 -23 -9 -68 36 -68 69 0 15 -8 30 -19 36 -27 14 -86 13 -98 -2z
m92 -52 c10 -49 39 -76 81 -76 19 0 45 5 56 11 17 9 24 7 42 -10 20 -21 20
-22 4 -52 -34 -58 -19 -111 38 -135 29 -12 34 -19 34 -48 0 -31 -3 -34 -39
-40 -64 -10 -84 -53 -59 -123 11 -30 10 -36 -8 -54 l-21 -20 -37 21 c-57 34
-118 10 -131 -51 -6 -25 -11 -29 -40 -29 -30 0 -34 4 -40 33 -14 66 -78 97
-137 66 -16 -9 -24 -7 -44 12 l-23 22 19 27 c39 55 17 118 -49 141 -24 8 -26
14 -23 44 3 26 9 35 23 35 31 0 66 21 78 47 15 32 14 48 -4 82 -13 26 -13 30
9 50 l23 22 37 -22 c53 -31 94 -18 121 38 17 37 24 42 52 43 29 0 33 -4 38
-34z"/>
<path d="M1070 1258 c-93 -64 -106 -177 -30 -255 111 -113 305 -6 276 152 -8
40 -46 90 -87 110 -43 23 -120 19 -159 -7z m158 -25 c55 -34 77 -115 48 -171
-62 -120 -238 -92 -253 41 -13 115 108 192 205 130z"/>
<path d="M405 1054 c-55 -20 -58 -26 -56 -87 1 -42 -3 -60 -20 -81 -20 -26
-25 -27 -93 -24 l-71 3 -30 -57 -30 -58 48 -46 c67 -66 65 -104 -10 -156 -41
-27 -45 -34 -40 -62 3 -18 12 -49 21 -69 l15 -37 64 0 c51 0 68 -4 86 -21 21
-20 22 -27 16 -90 l-7 -68 51 -25 c28 -14 56 -26 62 -26 6 0 31 18 55 40 68
63 106 55 170 -35 l21 -30 57 19 c71 24 80 36 73 87 -11 81 37 125 115 107 22
-5 48 -6 57 -3 18 5 61 89 61 117 0 8 -18 29 -39 46 -22 18 -43 41 -46 53 -10
31 13 76 50 99 56 34 59 43 39 97 -25 70 -30 73 -93 73 -90 0 -123 38 -101
119 6 22 8 45 5 53 -3 8 -30 26 -61 41 l-55 27 -48 -45 c-34 -32 -56 -45 -77
-45 -36 0 -41 4 -83 58 -35 46 -46 48 -106 26z m90 -53 c54 -81 134 -82 200
-4 l26 33 42 -21 c23 -12 43 -23 45 -24 1 -1 -2 -23 -8 -49 -20 -90 29 -146
129 -146 l49 0 15 -45 16 -45 -43 -30 c-49 -33 -56 -45 -56 -101 0 -32 7 -48
41 -83 l40 -45 -20 -39 -20 -40 -60 5 c-47 4 -66 2 -86 -11 -35 -23 -53 -69
-47 -121 l4 -42 -48 -19 c-46 -18 -48 -18 -58 1 -6 11 -25 34 -42 52 -26 27
-40 33 -73 33 -35 0 -49 -7 -86 -41 l-45 -42 -41 18 -40 19 7 63 c6 62 6 63
-29 98 -32 32 -40 35 -91 35 -55 0 -56 1 -71 36 -21 52 -20 57 29 91 73 52 75
119 5 184 l-39 36 22 41 23 41 61 -6 c57 -5 63 -4 95 25 31 27 33 35 34 88 0
57 1 59 35 76 50 24 57 22 85 -21z"/>
<path d="M516 819 c-57 -14 -101 -44 -134 -94 -76 -115 -35 -262 92 -327 58
-29 158 -23 215 15 62 41 94 97 99 171 5 69 -9 112 -53 164 -51 60 -140 89
-219 71z m138 -45 c76 -39 110 -100 104 -185 -8 -110 -82 -179 -193 -179 -84
0 -146 42 -179 122 -21 50 -20 90 5 148 44 102 163 144 263 94z"/>
<path d="M1243 818 c-17 -8 -23 -20 -23 -45 0 -34 -4 -36 -51 -33 -20 1 -29
-5 -39 -30 -11 -28 -11 -33 9 -54 27 -28 26 -30 -6 -60 -24 -23 -25 -27 -13
-55 10 -24 19 -31 41 -31 33 0 44 -14 44 -55 0 -23 6 -31 26 -39 27 -9 40 -6
71 16 14 10 21 8 42 -11 20 -19 29 -22 53 -14 22 7 29 17 33 44 5 31 8 34 43
37 29 3 40 9 52 33 14 27 14 30 -5 46 -26 22 -26 49 0 65 40 25 17 84 -35 90
-26 3 -30 7 -33 37 -6 58 -45 76 -90 40 l-27 -21 -20 26 c-22 28 -37 31 -72
14z m105 -61 c9 3 25 13 34 20 22 19 38 9 38 -24 0 -33 26 -63 56 -63 33 0 39
-18 15 -44 -25 -26 -27 -54 -6 -82 24 -31 18 -44 -19 -44 -37 0 -66 -28 -66
-62 0 -27 -20 -32 -41 -9 -23 25 -56 27 -87 5 -29 -20 -42 -11 -42 31 0 36
-20 55 -58 55 -28 0 -34 26 -10 42 25 17 27 61 3 88 -22 25 -12 40 29 40 39 0
56 15 56 51 0 36 19 41 53 13 17 -14 34 -21 45 -17z"/>
<path d="M1254 686 c-70 -70 -26 -175 74 -176 60 0 102 41 102 100 0 52 -13
76 -50 95 -49 25 -88 19 -126 -19z m126 -16 c49 -49 16 -130 -53 -130 -66 0
-98 70 -56 124 26 33 79 36 109 6z"/>
</g>
</svg>
