<?xml version="1.0" standalone="no"?>
<!DOCTYPE svg PUBLIC "-//W3C//DTD SVG 20010904//EN"
 "http://www.w3.org/TR/2001/REC-SVG-20010904/DTD/svg10.dtd">
<svg version="1.0" xmlns="http://www.w3.org/2000/svg"
 width="500.000000pt" height="500.000000pt" viewBox="0 0 500.000000 500.000000"
 preserveAspectRatio="xMidYMid meet">

<g transform="translate(0.000000,500.000000) scale(0.100000,-0.100000)"
fill="#f3f4f6" stroke="none">
<path d="M1475 4451 c-539 -109 -994 -205 -1012 -214 -63 -33 -73 -66 -73
-236 0 -83 2 -151 4 -151 3 0 21 9 40 21 l36 21 0 103 c0 116 9 151 42 165 39
18 1909 392 1983 397 64 5 174 -15 1050 -192 539 -108 990 -203 1002 -211 22
-14 23 -19 25 -240 l3 -226 43 -25 43 -26 -3 261 c-3 245 -4 262 -24 288 -11
15 -31 36 -45 46 -34 25 -1989 418 -2074 417 -35 -1 -474 -84 -1040 -198z" fill="#4f46e5" />
<path d="M1950 4259 c-211 -9 -306 -27 -152 -28 106 -1 228 -23 284 -52 22
-11 87 -56 146 -100 135 -101 274 -170 423 -208 187 -48 276 -56 594 -56 295
1 437 12 695 54 l105 18 -380 7 c-614 12 -831 22 -913 41 -41 9 -70 20 -65 25
4 4 82 18 173 30 202 28 483 37 658 21 107 -10 387 -51 457 -67 40 -9 -73 39
-160 67 -184 61 -460 124 -750 173 -407 68 -747 90 -1115 75z" />
<path d="M1595 4184 c-190 -26 -304 -58 -425 -119 -92 -47 -195 -122 -265
-193 l-59 -61 -11 32 c-9 28 -15 32 -49 35 -83 7 -176 -56 -176 -119 0 -23 6
-32 27 -40 26 -10 22 -12 -60 -39 -48 -17 -110 -41 -139 -56 -54 -27 -160 -95
-156 -99 2 -2 50 8 108 21 254 57 826 107 1430 123 237 7 207 8 -290 10 -599
1 -602 2 -608 53 -9 79 158 244 333 328 111 54 212 80 337 87 148 8 154 5 90
-60 -59 -60 -114 -148 -138 -219 -13 -39 -19 -48 -33 -42 -82 35 -144 27 -208
-29 -37 -32 -37 -21 0 21 l20 22 -35 0 c-47 0 -144 -50 -193 -100 l-39 -40
454 6 c250 3 460 7 467 9 6 2 17 13 23 25 l11 21 -200 -7 -201 -7 64 95 c82
123 103 177 89 229 -8 32 -7 41 6 53 15 13 24 12 82 -8 80 -28 143 -70 198
-132 60 -69 61 -83 12 -182 -23 -46 -41 -86 -39 -87 2 -2 36 35 77 81 72 84
73 85 60 117 -49 123 -160 214 -305 251 -62 16 -206 27 -259 20z m-799 -332
c16 -10 26 -49 19 -71 -7 -24 -52 -33 -99 -20 -29 8 -36 15 -36 35 0 40 81 79
116 56z"/>
<path d="M2581 3765 c-2 -31 33 -134 55 -162 28 -37 83 -69 141 -82 32 -7 35
-9 18 -16 -66 -24 -133 -63 -164 -94 -34 -34 -87 -128 -78 -137 2 -2 167 -3
366 -2 l361 3 -46 53 c-25 28 -43 52 -41 52 3 0 56 -36 119 -80 l113 -80 574
3 574 2 20 38 c23 46 24 80 2 206 l-18 99 -106 31 c-179 52 -240 62 -406 68
l-160 5 -255 -51 c-268 -54 -459 -81 -574 -81 -73 0 -266 39 -353 71 -72 28
-99 52 -122 112 -11 28 -20 47 -20 42z m1859 -487 c-94 -15 -815 -16 -865 -1
-31 8 67 11 445 11 359 0 468 -3 420 -10z"/>
<path d="M4604 3523 c3 -10 13 -55 22 -100 l17 -83 48 0 c26 0 50 4 53 8 10
16 -43 111 -84 151 -45 44 -64 52 -56 24z"/>
<path d="M212 3473 c-16 -6 -65 -102 -91 -179 -32 -96 -44 -244 -27 -339 14
-80 59 -189 90 -214 33 -28 18 -38 -68 -45 -103 -7 -116 -12 -116 -40 l0 -23
273 1 c291 0 356 -7 595 -60 170 -38 428 -125 558 -189 63 -31 154 -85 203
-120 103 -74 181 -116 266 -141 91 -28 291 -25 545 9 262 34 429 45 793 53
296 7 644 -5 807 -27 136 -19 403 -16 479 4 63 17 91 32 91 47 0 11 -69 33
-215 69 -145 35 -220 63 -260 96 -26 21 -27 24 -10 25 44 1 104 38 124 77 l19
39 109 12 c59 7 147 17 195 23 l88 12 -3 46 c-2 39 1 47 21 56 12 5 22 13 22
16 0 11 -149 19 -349 19 -272 0 -822 -39 -999 -70 -42 -8 -60 -6 -82 5 -42 21
-98 92 -115 144 l-15 46 5 -63 c6 -76 34 -144 68 -167 20 -13 26 -26 29 -73 3
-31 9 -65 13 -75 7 -17 -10 -18 -416 -15 -336 2 -429 6 -449 17 -73 40 -91 84
-141 348 -34 183 -62 278 -104 350 -144 244 -365 226 -446 -37 -40 -131 -43
-346 -5 -524 13 -62 12 -67 -3 -61 -69 29 -267 88 -364 109 -105 24 -340 63
-665 112 -145 21 -158 31 -168 121 l-7 68 -21 -66 c-25 -79 -58 -121 -111
-148 -33 -17 -47 -19 -77 -11 -46 13 -110 77 -143 143 -48 100 -51 306 -5 396
46 91 131 124 213 82 20 -10 37 -17 37 -15 0 3 -14 32 -30 65 -39 76 -91 111
-138 92z m1814 -365 c78 -72 129 -205 141 -368 14 -200 -73 -414 -183 -450
-63 -21 -160 44 -204 135 -58 119 -80 358 -46 484 43 159 114 240 209 241 30
0 46 -8 83 -42z m1576 -548 c35 -44 18 -103 -37 -126 -36 -15 -172 -19 -191
-6 -6 4 -16 17 -23 30 -8 15 -21 22 -42 22 -25 0 -30 4 -27 21 5 32 45 57 118
74 89 20 179 13 202 -15z" fill="#4f46e5"/>
<path d="M1845 3086 c-36 -39 -65 -94 -65 -126 0 -25 40 -63 138 -131 l72 -50
0 39 c0 35 -19 120 -56 250 -19 64 -41 68 -89 18z"/>
<path d="M1990 3056 c0 -19 7 -70 15 -113 8 -43 15 -97 15 -121 l0 -42 40 20
c67 34 72 69 25 175 -23 52 -70 115 -86 115 -5 0 -9 -15 -9 -34z"/>
<path d="M1733 2739 c7 -108 30 -194 54 -203 13 -5 38 15 96 75 102 107 102
119 -3 172 -41 21 -93 41 -114 44 l-39 6 6 -94z"/>
<path d="M2036 2704 c-16 -43 2 -246 24 -268 25 -25 62 84 77 224 l6 60 -51 0
c-36 0 -52 -4 -56 -16z"/>
<path d="M1935 2589 c-65 -77 -115 -148 -115 -165 0 -26 109 -104 146 -104 17
0 23 8 28 33 11 62 19 307 10 307 -5 0 -36 -32 -69 -71z"/>
<path d="M3430 2549 c-42 -17 -53 -55 -24 -83 23 -23 111 -21 152 4 34 21 43
55 20 78 -14 14 -113 15 -148 1z"/>
<path d="M646 3370 c-72 -5 -145 -11 -164 -15 l-35 -6 7 -57 c7 -63 25 -136
62 -259 19 -62 30 -83 42 -83 14 0 14 2 3 9 -11 7 -15 33 -15 103 0 116 26
216 58 223 58 12 537 48 846 62 l165 8 -100 6 c-188 12 -740 18 -869 9z"/>
<path d="M230 3319 c-34 -14 -70 -49 -70 -68 0 -15 145 -161 160 -161 12 0
-18 209 -32 228 -12 14 -24 14 -58 1z"/>
<path d="M350 3193 c0 -121 4 -133 46 -133 23 0 37 6 41 16 11 30 -54 204 -77
204 -6 0 -10 -37 -10 -87z"/>
<path d="M1260 3254 c-8 -2 -143 -10 -300 -19 -268 -14 -286 -17 -303 -37 -10
-11 -16 -22 -15 -23 2 -1 134 13 293 30 160 18 331 37 380 42 88 10 89 10 25
10 -36 1 -72 -1 -80 -3z"/>
<path d="M1491 3204 c-166 -36 -281 -136 -325 -282 -11 -40 -12 -54 -3 -56 7
-2 43 -10 80 -19 87 -21 206 -73 304 -131 41 -25 76 -46 77 -46 1 0 0 71 -2
158 -3 131 0 174 17 259 12 56 24 109 27 117 5 14 -3 16 -52 15 -33 0 -88 -7
-123 -15z"/>
<path d="M2221 3158 c41 -74 97 -251 119 -377 16 -91 19 -99 19 -55 2 125 -52
322 -115 420 -44 70 -59 77 -23 12z"/>
<path d="M2530 3198 c0 -1 -11 -90 -25 -197 -14 -107 -23 -196 -21 -198 2 -2
9 9 15 25 19 45 72 91 137 117 82 33 85 71 12 151 -38 41 -118 110 -118 102z"/>
<path d="M120 3066 c0 -52 3 -101 6 -110 9 -22 37 -20 92 8 63 32 90 62 76 84
-13 21 -143 112 -161 112 -10 0 -13 -23 -13 -94z"/>
<path d="M4749 3135 c-25 -13 -65 -63 -57 -70 2 -2 29 -1 59 2 l56 6 0 38 c0
43 -13 49 -58 24z"/>
<path d="M3103 3069 c-33 -9 -73 -51 -73 -75 0 -16 52 -18 263 -7 l136 6 -14
28 c-12 22 -12 30 -2 36 32 20 -244 31 -310 12z"/>
<path d="M354 3007 c-3 -9 -1 -25 5 -36 7 -11 11 -57 10 -101 -1 -45 2 -84 6
-88 18 -18 85 108 85 159 0 44 -92 101 -106 66z"/>
<path d="M246 2920 c-36 -39 -66 -79 -66 -89 0 -26 75 -91 104 -91 13 0 27 8
31 18 12 29 19 232 7 232 -5 0 -39 -32 -76 -70z"/>
<path d="M593 2943 c9 -2 25 -2 35 0 9 3 1 5 -18 5 -19 0 -27 -2 -17 -5z"/>
<path d="M681 2816 c2 -2 60 -12 129 -20 174 -23 390 -68 550 -115 74 -22 136
-38 138 -36 6 5 -236 82 -328 104 -176 41 -510 87 -489 67z"/>
<path d="M3735 2799 c-180 -28 -444 -31 -499 -6 -22 9 -41 15 -44 12 -6 -6 58
-112 81 -132 16 -15 27 -15 135 5 312 57 561 77 867 69 126 -3 275 -13 330
-21 55 -8 101 -13 103 -12 4 5 -231 66 -320 83 -55 10 -159 16 -303 19 -183 2
-242 0 -350 -17z"/>
<path d="M4851 2744 c-12 -27 -11 -28 4 -12 10 9 16 21 13 28 -2 7 -10 -1 -17
-16z"/>
<path d="M2466 2698 c-9 -37 -6 -120 7 -157 23 -65 46 -73 229 -79 148 -4 492
8 408 15 -290 24 -560 118 -620 215 -17 29 -17 29 -24 6z"/>
<path d="M4672 2637 c-13 -16 -5 -54 12 -60 7 -3 34 -1 59 5 40 8 47 13 47 33
0 12 -7 26 -16 29 -28 11 -91 6 -102 -7z"/>
<path d="M390 1651 l0 -798 22 -33 c13 -18 34 -42 48 -52 18 -13 296 -73 995
-214 797 -161 986 -196 1060 -197 80 -1 198 21 1050 191 528 106 977 200 998
209 22 9 51 33 65 52 l27 34 3 629 2 628 -45 0 -45 0 0 -620 0 -620 -23 -14
c-12 -8 -463 -103 -1002 -211 -884 -178 -987 -197 -1050 -192 -38 3 -315 55
-615 116 -300 60 -727 146 -950 191 -223 45 -413 86 -423 92 -10 5 -22 20 -27
34 -6 15 -10 334 -10 800 l0 774 -40 0 -40 0 0 -799z" fill="#4f46e5"/>
<path d="M625 1855 c-17 -16 -25 -35 -25 -58 0 -51 27 -78 83 -84 41 -5 47 -8
47 -29 0 -23 -4 -24 -60 -24 l-60 0 0 -30 0 -30 70 0 c87 0 110 17 110 83 0
59 -17 78 -73 84 -41 5 -47 8 -47 29 0 22 4 24 55 24 54 0 55 0 55 30 l0 30
-65 0 c-57 0 -69 -3 -90 -25z"/>
<path d="M837 1873 c-9 -8 -9 -236 -1 -257 5 -13 22 -16 85 -16 l79 0 0 30 c0
29 -1 30 -50 30 -48 0 -50 1 -50 28 0 26 3 28 43 27 39 0 42 2 45 28 3 26 2
27 -42 27 -42 0 -46 2 -46 25 0 23 3 25 50 25 49 0 50 1 50 30 l0 30 -78 0
c-43 0 -82 -3 -85 -7z"/>
<path d="M1050 1740 l0 -140 30 0 c29 0 30 1 30 50 0 48 1 50 28 50 25 0 30
-5 43 -47 13 -43 17 -48 46 -51 l32 -3 -15 45 c-9 25 -20 49 -26 52 -5 3 -2
14 8 25 9 10 19 38 21 63 5 38 2 48 -20 70 -23 23 -34 26 -102 26 l-75 0 0
-140z m130 55 c0 -33 -2 -35 -35 -35 -32 0 -35 3 -35 28 0 36 6 42 42 42 25 0
28 -3 28 -35z"/>
<path d="M1296 1763 c13 -65 26 -128 29 -140 5 -20 12 -23 54 -23 27 0 53 6
59 13 10 12 62 224 62 253 0 11 -8 14 -27 12 -26 -3 -28 -8 -49 -106 -12 -57
-24 -106 -27 -109 -15 -14 -25 15 -43 112 l-18 105 -32 0 -31 0 23 -117z"/>
<path d="M1540 1740 l0 -140 35 0 35 0 0 140 0 140 -35 0 -35 0 0 -140z"/>
<path d="M1720 1865 c-11 -13 -69 -224 -70 -253 0 -9 10 -12 28 -10 21 2 28 9
30 31 3 25 6 27 52 27 46 0 49 -2 55 -30 5 -25 11 -30 36 -30 16 0 29 3 29 8
0 4 -12 67 -27 140 l-27 132 -47 0 c-29 0 -51 -6 -59 -15z m60 -52 c1 -5 5
-27 9 -50 l8 -43 -34 0 c-28 0 -33 3 -29 18 2 9 7 32 11 50 4 18 13 32 21 32
8 0 14 -3 14 -7z"/>
<path d="M1912 1754 c4 -150 6 -154 108 -154 96 0 103 10 102 147 0 60 -1 114
-1 121 -1 7 -14 12 -31 12 l-30 0 0 -115 0 -115 -40 0 -40 0 0 115 0 115 -36
0 -36 0 4 -126z"/>
<path d="M2152 1853 c2 -23 8 -29 36 -31 l32 -3 0 -110 0 -109 30 0 30 0 0
110 0 110 30 0 c27 0 30 3 30 30 l0 30 -96 0 -95 0 3 -27z"/>
<path d="M2389 1859 c-19 -19 -20 -30 -17 -126 4 -127 9 -133 108 -133 101 0
105 5 105 140 0 135 -4 140 -107 140 -56 0 -72 -4 -89 -21z m131 -119 l0 -90
-40 0 -40 0 0 90 0 90 40 0 40 0 0 -90z"/>
<path d="M2652 1864 c-17 -12 -22 -25 -22 -63 0 -63 16 -82 73 -88 41 -5 47
-9 47 -29 0 -21 -5 -23 -57 -26 -55 -3 -58 -4 -61 -30 l-3 -28 69 0 c91 0 117
18 117 84 0 57 -19 77 -79 83 -40 5 -46 9 -46 29 0 21 5 23 58 26 54 3 57 4
60 31 l3 27 -68 0 c-46 0 -76 -5 -91 -16z"/>
<path d="M2940 1740 l0 -140 85 0 c74 0 87 3 105 22 24 26 26 80 4 103 -13 12
-14 19 -5 28 6 6 11 30 11 53 0 60 -23 74 -122 74 l-78 0 0 -140z m138 58 c3
-26 1 -28 -32 -28 -33 0 -36 2 -36 31 0 28 2 30 33 27 27 -2 33 -8 35 -30z m7
-89 c4 -5 4 -21 1 -35 -5 -20 -13 -24 -41 -24 -33 0 -35 2 -35 35 0 33 2 35
34 35 19 0 38 -5 41 -11z"/>
<path d="M3250 1865 c-11 -13 -69 -224 -70 -253 0 -9 10 -12 27 -10 20 2 29
10 33 28 5 22 12 25 53 28 46 3 47 2 53 -27 6 -26 11 -31 35 -31 16 0 29 3 29
8 0 4 -12 67 -26 140 l-27 132 -47 0 c-30 0 -52 -6 -60 -15z m65 -78 c4 -17 9
-40 11 -49 4 -15 -1 -18 -31 -18 -30 0 -35 3 -31 18 3 9 8 31 12 47 13 56 28
57 39 2z"/>
<path d="M3450 1740 l0 -140 86 0 85 0 -3 28 c-3 25 -7 27 -55 30 -48 3 -53 5
-53 27 0 21 5 24 48 27 43 3 47 5 50 31 3 26 2 27 -47 27 -48 0 -51 2 -51 25
0 23 3 25 50 25 49 0 50 1 50 30 l0 30 -80 0 -80 0 0 -140z"/>
<path d="M3650 1855 c0 -23 4 -24 61 -27 l61 -3 -66 -87 c-94 -124 -90 -138
46 -138 87 0 88 0 88 25 0 24 -3 25 -60 25 -33 0 -60 3 -60 8 0 4 27 43 60 86
88 117 82 136 -47 136 -81 0 -83 0 -83 -25z"/>
<path d="M4000 1873 c-32 -12 -40 -37 -40 -132 0 -53 4 -101 8 -107 14 -21 51
-34 101 -34 41 0 51 4 56 20 10 31 -2 40 -56 40 l-49 0 0 79 0 80 53 3 c48 3
52 5 55 31 3 27 3 27 -55 26 -32 0 -65 -3 -73 -6z"/>
<path d="M4290 1865 c-11 -13 -69 -224 -70 -253 0 -9 10 -12 27 -10 20 2 29
10 33 28 5 22 12 25 53 28 46 3 47 2 53 -27 6 -26 11 -31 35 -31 16 0 29 3 29
8 0 4 -12 67 -27 140 l-27 132 -47 0 c-29 0 -51 -6 -59 -15z m65 -78 c4 -17 9
-40 11 -49 4 -15 -1 -18 -31 -18 -30 0 -35 3 -31 18 3 9 8 31 12 47 13 56 28
57 39 2z"/>
<path d="M4150 1630 c0 -25 4 -30 25 -30 21 0 25 5 25 30 0 25 -4 30 -25 30
-21 0 -25 -5 -25 -30z"/>
<path d="M960 1335 c0 -88 -1 -95 -20 -95 -11 0 -20 -7 -20 -15 0 -23 57 -20
70 4 5 11 10 60 10 110 0 84 -1 91 -20 91 -19 0 -20 -7 -20 -95z"/>
<path d="M1382 1373 l3 -58 43 -3 c41 -3 42 -4 42 -38 0 -34 0 -34 -45 -34
-33 0 -45 -4 -45 -15 0 -19 100 -21 118 -3 16 16 15 93 -1 107 -8 6 -28 14
-45 17 -48 10 -44 42 5 46 27 2 39 8 41 21 3 15 -5 17 -58 17 l-61 0 3 -57z"/>
<path d="M1686 1414 c-12 -11 -16 -36 -16 -90 0 -101 8 -114 70 -114 70 0 80
14 80 110 0 94 -11 110 -75 110 -26 0 -50 -6 -59 -16z m92 -96 l3 -78 -36 0
-35 0 0 73 c0 41 3 77 7 81 4 4 19 6 33 4 24 -3 25 -6 28 -80z"/>
<path d="M1974 1416 c-3 -7 -4 -33 -2 -57 l3 -44 48 -3 c48 -3 48 -4 45 -35
-3 -31 -5 -32 -50 -35 -35 -2 -48 -7 -48 -18 0 -12 12 -14 57 -12 67 4 84 23
74 86 -6 34 -10 38 -49 46 -30 7 -42 15 -42 27 0 14 10 19 42 21 31 2 44 8 46
21 3 15 -5 17 -58 17 -42 0 -62 -4 -66 -14z"/>
<path d="M2250 1415 c0 -11 11 -15 40 -15 49 0 49 -5 10 -100 -35 -85 -36 -90
-12 -90 26 0 100 184 82 205 -18 21 -120 21 -120 0z"/>
<path d="M2547 1419 c-14 -8 -18 -23 -18 -62 0 -29 0 -67 -1 -86 -1 -41 22
-61 70 -61 53 0 72 15 72 58 0 21 -5 43 -11 49 -8 8 -8 13 0 17 16 11 13 62
-5 80 -18 18 -80 21 -107 5z m83 -54 c0 -21 -5 -25 -29 -25 -16 0 -31 6 -34
13 -8 23 5 37 34 37 24 0 29 -4 29 -25z m0 -91 c0 -34 -1 -35 -32 -32 -54 5
-53 68 2 68 28 0 30 -3 30 -36z"/>
<path d="M2835 1406 c-18 -26 -15 -77 5 -101 6 -8 28 -15 48 -17 29 -2 37 -7
37 -23 0 -17 -8 -20 -47 -23 -34 -2 -48 -7 -48 -18 0 -18 100 -20 118 -2 8 8
12 45 12 100 0 98 -7 108 -74 108 -27 0 -40 -6 -51 -24z m93 -48 c-3 -29 -6
-33 -33 -33 -27 0 -30 4 -33 33 -3 31 -2 32 33 32 35 0 36 -1 33 -32z"/>
<path d="M3138 1419 c-13 -7 -18 -23 -18 -57 0 -58 12 -72 63 -72 34 0 38 -2
35 -22 -2 -19 -10 -24 -45 -26 -29 -2 -43 -8 -43 -18 0 -10 13 -14 49 -14 66
0 81 21 81 112 0 55 -4 72 -20 88 -22 22 -73 26 -102 9z m82 -64 c0 -32 -3
-35 -28 -35 -37 0 -39 4 -34 40 4 25 9 30 33 30 26 0 29 -3 29 -35z"/>
<path d="M3417 1423 c-3 -5 -3 -19 -2 -33 2 -14 4 -37 4 -52 1 -26 4 -28 47
-28 45 0 45 0 42 -32 -3 -32 -5 -33 -50 -36 -34 -2 -48 -7 -48 -18 0 -20 103
-20 119 0 7 8 11 36 9 63 -3 48 -3 48 -45 57 -31 6 -43 14 -43 27 0 14 9 19
42 21 31 2 44 8 46 21 3 15 -5 17 -57 17 -33 0 -62 -3 -64 -7z"/>
<path d="M3920 1410 c0 -17 7 -20 45 -20 41 0 45 -2 45 -25 0 -22 -4 -25 -35
-25 -46 0 -49 -27 -2 -32 28 -3 32 -7 35 -35 3 -33 3 -33 -42 -33 -34 0 -46
-4 -46 -15 0 -21 93 -21 114 1 18 18 21 65 5 81 -8 8 -8 17 0 31 27 51 -5 92
-74 92 -38 0 -45 -3 -45 -20z"/>
<path d="M1152 1308 c6 -16 32 -22 64 -14 40 10 27 26 -22 26 -32 0 -44 -4
-42 -12z"/>
<path d="M3690 1311 c0 -12 33 -20 64 -14 42 8 30 23 -19 23 -25 0 -45 -4 -45
-9z"/>
<path d="M1175 1050 c-6 -27 -10 -30 -48 -30 l-42 -1 33 -27 c30 -25 32 -30
23 -55 -15 -40 -14 -41 19 -17 l30 21 27 -20 c32 -26 37 -22 23 15 -10 26 -8
31 22 56 l33 27 -42 1 c-37 0 -42 3 -52 30 -5 17 -12 30 -15 30 -2 0 -7 -13
-11 -30z"/>
<path d="M3847 1051 c-6 -27 -11 -30 -49 -33 l-43 -3 33 -20 c33 -20 35 -29
15 -81 -6 -15 -2 -15 25 5 l32 22 30 -21 c33 -24 34 -23 19 17 -9 25 -7 31 22
56 l33 27 -42 0 c-39 0 -43 2 -48 30 -8 38 -20 38 -27 1z"/>
<path d="M1811 960 c-12 -39 -13 -40 -59 -40 l-47 -1 36 -32 37 -32 -14 -39
c-8 -22 -13 -41 -11 -42 2 -2 20 8 40 23 l36 26 35 -27 c19 -14 37 -26 40 -26
3 0 -1 19 -9 41 -8 23 -15 44 -15 48 0 3 18 17 40 31 l41 25 -52 5 c-48 5 -53
8 -63 37 -16 47 -22 47 -35 3z"/>
<path d="M3204 963 c-9 -37 -10 -38 -59 -41 l-49 -3 37 -32 38 -32 -15 -43
c-16 -46 -15 -46 36 -8 l28 19 37 -26 c20 -15 38 -25 40 -23 2 2 -4 19 -12 39
-8 20 -15 39 -15 42 0 3 18 18 41 34 l40 30 -52 3 c-53 3 -53 4 -62 41 -5 20
-12 37 -16 37 -4 0 -12 -17 -17 -37z"/>
<path d="M2505 928 l-19 -58 -60 0 -60 0 35 -26 c19 -14 40 -29 47 -33 13 -7
7 -50 -15 -108 -4 -11 10 -5 40 15 25 18 48 32 51 32 4 0 25 -14 48 -30 23
-17 43 -29 45 -27 2 2 -4 23 -12 47 -8 23 -15 48 -15 55 0 7 21 27 48 44 l47
31 -62 0 -61 0 -20 58 -19 57 -18 -57z"/>
</g>
</svg>
