<?xml version="1.0" standalone="no"?>
<!DOCTYPE svg PUBLIC "-//W3C//DTD SVG 20010904//EN"
 "http://www.w3.org/TR/2001/REC-SVG-20010904/DTD/svg10.dtd">
<svg version="1.0" xmlns="http://www.w3.org/2000/svg"
 width="492.000000pt" height="148.000000pt" viewBox="0 0 492.000000 148.000000"
 preserveAspectRatio="xMidYMid meet">

<g transform="translate(0.000000,148.000000) scale(0.100000,-0.100000)"
fill="#fff" stroke="none">
<path d="M1885 1399 c-235 -14 -571 -63 -825 -120 -329 -73 -798 -216 -891
-272 -125 -75 -130 -162 -20 -309 l36 -49 7 48 c21 145 105 226 303 292 214
71 445 94 922 89 193 -2 350 -2 348 0 -2 2 -108 14 -236 27 -310 32 -317 33
-340 56 -16 16 -28 69 -15 69 3 0 82 9 178 20 356 40 529 53 733 53 241 1 323
-12 531 -84 115 -39 378 -158 370 -167 -4 -4 -268 26 -272 31 -1 1 -13 21 -27
44 -25 39 -31 42 -103 58 -73 17 -77 17 -95 -1 -48 -48 -23 -127 44 -139 84
-14 593 -47 852 -55 620 -19 976 -113 1176 -310 41 -41 82 -86 90 -99 14 -23
17 -23 108 -16 l93 7 -48 50 c-106 108 -346 243 -544 306 -219 69 -487 109
-794 119 l-208 6 -87 48 c-47 27 -149 78 -226 113 -366 167 -627 213 -1060
185z" fill="#4f46e5" />
<path d="M1165 1016 c163 -60 253 -162 274 -313 l8 -58 16 37 c21 45 22 127 3
172 l-14 33 181 6 c99 4 442 8 761 8 587 1 750 8 521 23 -66 4 -212 13 -325
21 -113 8 -342 24 -510 35 -168 11 -397 27 -510 35 -113 8 -266 17 -340 20
l-135 6 70 -25z"/>
<path d="M791 884 c-114 -30 -220 -111 -274 -208 -15 -27 -27 -50 -27 -53 0
-2 25 22 55 55 182 197 506 202 698 11 31 -32 57 -55 57 -52 0 18 -69 109
-112 148 -109 98 -260 136 -397 99z"/>
<path d="M3842 884 c-107 -28 -201 -95 -261 -185 -51 -76 -53 -96 -5 -37 20
23 60 60 90 80 197 134 461 111 626 -54 32 -32 58 -55 58 -52 0 16 -77 119
-114 150 -76 67 -206 115 -305 113 -20 0 -60 -7 -89 -15z"/>
<path d="M1655 841 c-6 -5 102 -140 128 -161 71 -56 65 -55 447 -58 320 -4
1025 6 1018 13 -2 2 -205 8 -453 15 -697 17 -857 25 -892 44 -35 18 -70 56
-97 108 -19 35 -22 37 -84 40 -35 2 -65 1 -67 -1z"/>
<path d="M205 545 c-18 -17 -25 -35 -25 -60 0 -31 8 -45 55 -90 39 -37 53 -58
49 -69 -8 -22 -26 -16 -39 12 -7 15 -19 22 -37 22 -23 0 -28 -4 -28 -24 0 -14
12 -38 26 -55 34 -41 83 -43 121 -5 22 22 25 32 20 67 -5 35 -14 50 -58 88
-36 32 -50 52 -46 63 9 22 24 20 39 -4 15 -24 68 -28 68 -5 0 72 -94 112 -145
60z"/>
<path d="M400 410 l0 -160 220 0 220 0 0 30 0 30 -190 0 -190 0 0 40 0 39 143
3 142 3 0 30 0 30 -143 3 c-142 3 -143 3 -140 25 3 22 5 22 191 25 l187 2 0
30 0 30 -220 0 -220 0 0 -160z"/>
<path d="M890 411 l0 -161 30 0 c30 0 30 1 30 55 l0 55 73 0 74 0 71 -56 c66
-51 75 -55 118 -52 l47 3 -63 49 -62 49 53 26 c62 30 81 68 59 120 -22 54 -64
66 -257 69 l-173 4 0 -161z m338 80 c12 -6 22 -20 22 -31 0 -28 -56 -40 -187
-40 l-113 0 0 46 0 47 128 -5 c71 -3 138 -11 150 -17z"/>
<path d="M1396 558 c4 -7 55 -79 113 -160 102 -145 105 -148 141 -148 36 0 39
3 140 148 56 81 105 153 107 160 4 8 -6 12 -28 12 -32 -1 -40 -9 -119 -121
-47 -66 -90 -125 -96 -130 -7 -6 -41 33 -103 121 -88 124 -94 130 -127 130
-25 0 -33 -3 -28 -12z"/>
<path d="M1960 410 l0 -160 30 0 30 0 0 160 0 160 -30 0 -30 0 0 -160z"/>
<path d="M2335 548 c-13 -57 -55 -272 -55 -284 0 -9 11 -14 29 -14 25 0 31 5
36 30 9 43 50 43 59 0 5 -25 10 -30 36 -30 16 0 30 3 30 8 0 4 -14 76 -32 160
l-31 152 -34 0 c-26 0 -34 -5 -38 -22z m42 -170 c-3 -8 -6 -5 -6 6 -1 11 2 17
5 13 3 -3 4 -12 1 -19z"/>
<path d="M2523 554 c-3 -8 -3 -53 0 -99 9 -156 61 -205 216 -205 70 0 95 4
131 22 67 34 84 72 88 195 l4 103 -36 0 -36 0 0 -99 c0 -89 -2 -100 -24 -124
-27 -29 -92 -43 -166 -34 -93 11 -110 37 -110 167 l0 90 -30 0 c-19 0 -33 -6
-37 -16z"/>
<path d="M3010 540 l0 -29 98 -3 97 -3 3 -127 3 -128 29 0 30 0 0 130 0 130
100 0 100 0 0 30 0 30 -230 0 -230 0 0 -30z"/>
<path d="M3664 552 c-68 -24 -101 -46 -124 -85 -42 -69 -12 -139 80 -185 49
-24 66 -27 155 -27 88 0 106 3 150 26 131 68 124 201 -14 262 -64 28 -182 33
-247 9z m229 -71 c57 -28 77 -62 57 -98 -38 -67 -191 -95 -289 -53 -66 29 -91
68 -67 106 46 70 200 93 299 45z"/>
<path d="M4171 560 c-71 -15 -110 -65 -91 -114 18 -48 51 -59 198 -67 145 -7
172 -13 172 -35 0 -37 -220 -45 -287 -10 -40 20 -83 21 -83 2 0 -21 55 -64 98
-76 20 -5 81 -10 134 -10 143 0 198 26 198 95 0 72 -32 87 -208 95 -144 7
-179 17 -154 43 21 20 234 23 273 3 33 -17 89 -22 89 -8 0 17 -33 53 -63 69
-38 19 -207 27 -276 13z"/>
<path d="M4695 260 c-3 -11 -11 -20 -17 -20 -6 0 -5 -6 3 -16 11 -14 14 -13
29 6 13 17 25 21 63 18 l46 -3 -40 -72 -41 -73 -966 -2 c-845 -2 -907 -3 -497
-9 259 -3 697 -7 976 -8 l505 -1 44 77 c24 43 50 88 58 101 l14 22 -85 0 c-77
0 -86 -2 -92 -20z" fill="#4f46e5"/>
<path d="M3130 160 c300 -4 776 -11 1058 -15 463 -6 512 -5 512 9 0 15 -100
16 -1057 14 -971 -1 -1013 -2 -513 -8z" fill="#4f46e5"/>
</g>
</svg>
