<?xml version="1.0" standalone="no"?>
<!DOCTYPE svg PUBLIC "-//W3C//DTD SVG 20010904//EN"
 "http://www.w3.org/TR/2001/REC-SVG-20010904/DTD/svg10.dtd">
<svg version="1.0" xmlns="http://www.w3.org/2000/svg"
 width="645.000000pt" height="387.000000pt" viewBox="0 0 645.000000 387.000000"
 preserveAspectRatio="xMidYMid meet">

<g transform="translate(0.000000,387.000000) scale(0.100000,-0.100000)"
fill="#4f46e5" stroke="none">
<path d="M1733 3662 c4 -20 9 -56 13 -79 l7 -43 -118 0 c-65 0 -158 -5 -207
-12 l-89 -12 -79 79 -79 78 -63 -33 c-35 -18 -93 -50 -130 -72 -37 -21 -75
-42 -85 -46 -36 -14 -153 -84 -153 -91 0 -3 38 -44 85 -91 l84 -84 -20 -25
c-74 -96 -138 -219 -160 -306 -6 -26 -17 -49 -24 -51 -7 -3 -67 6 -134 20 -67
14 -124 26 -126 26 -3 0 -4 -158 -3 -352 l3 -352 142 -21 c79 -12 144 -23 146
-26 2 -2 16 -42 32 -89 41 -126 104 -265 180 -397 l68 -118 -98 -92 c-90 -84
-97 -94 -84 -110 12 -16 253 -269 547 -576 68 -71 97 -95 106 -88 7 6 46 53
87 105 41 52 78 95 82 96 5 0 57 -30 115 -67 120 -75 325 -173 419 -199 38
-10 64 -24 67 -33 3 -9 15 -79 27 -156 12 -77 27 -146 32 -152 7 -10 90 -13
353 -13 188 0 345 3 347 8 3 4 -9 63 -24 132 -43 185 -47 168 41 204 116 48
234 123 282 181 17 20 19 18 117 -79 55 -55 102 -98 105 -95 2 2 22 45 45 94
l40 90 -32 2 c-70 5 -174 27 -214 44 -95 41 -223 149 -291 246 -23 32 -23 32
-60 19 -76 -29 -150 -40 -267 -39 -191 1 -354 44 -567 148 -179 87 -428 258
-407 280 3 2 61 0 130 -5 239 -19 484 -40 534 -46 27 -3 47 -3 45 0 -5 4 -59
15 -585 118 l-260 50 -38 42 c-98 105 -219 288 -293 439 -62 127 -60 137 19
87 70 -44 124 -98 212 -209 44 -55 81 -98 83 -97 7 8 -61 194 -90 246 -48 85
-140 168 -245 223 -56 29 -94 56 -98 68 -16 50 216 265 475 438 309 207 658
352 1025 426 310 62 723 69 1123 19 139 -17 550 -89 558 -97 11 -11 -39 -89
-98 -152 -152 -163 -489 -329 -1063 -524 -33 -11 -55 -20 -49 -21 23 0 208 43
387 90 635 170 938 370 914 606 l-5 53 51 11 c92 21 292 24 397 6 343 -56 596
-209 705 -426 71 -141 73 -297 4 -433 l-21 -42 26 24 c14 14 46 54 70 90 117
175 150 306 100 403 -75 144 -374 318 -684 398 -255 65 -603 64 -852 -2 -75
-19 -81 -19 -145 -4 -115 27 -360 65 -533 82 -124 12 -223 15 -400 11 -321 -8
-527 -41 -798 -129 -359 -116 -684 -297 -965 -537 -133 -113 -229 -191 -238
-191 -13 0 -23 90 -22 205 0 113 15 210 36 239 32 43 243 86 421 86 117 0 119
0 175 34 118 71 330 167 546 246 18 7 16 10 -18 26 -30 14 -39 26 -48 58 -5
23 -15 59 -22 80 l-12 40 -120 37 c-116 35 -308 93 -368 110 -29 8 -29 8 -24
-29z"/>
<path d="M3150 3260 c-422 -27 -818 -135 -1188 -325 -70 -37 -118 -63 -107
-59 434 160 771 235 1275 286 136 13 687 17 890 6 119 -6 123 -6 75 8 -215 61
-669 101 -945 84z"/>
<path d="M1815 2714 c-104 -21 -137 -29 -183 -46 -70 -26 -62 -33 9 -9 133 47
331 51 478 11 257 -72 471 -247 642 -527 64 -106 73 -107 33 -5 -124 312 -376
521 -688 572 -58 9 -249 12 -291 4z"/>
<path d="M5898 2564 c-28 -84 -96 -221 -157 -314 -60 -90 -202 -240 -270 -285
-39 -27 -41 -29 -25 -46 10 -11 22 -19 29 -19 21 0 171 148 235 232 77 101
161 273 190 387 24 97 23 124 -2 45z"/>
<path d="M3496 2381 c156 -37 225 -89 348 -264 97 -137 152 -185 253 -219 100
-34 234 -58 323 -58 155 0 371 57 570 151 105 50 370 197 370 205 0 3 -13 -2
-28 -10 -16 -8 -82 -33 -146 -55 -323 -112 -568 -143 -817 -106 -191 29 -335
91 -579 250 -36 24 -99 60 -140 80 -65 33 -86 39 -155 41 l-80 4 81 -19z"/>
<path d="M5916 2217 c-70 -122 -227 -293 -360 -391 -190 -140 -393 -229 -721
-316 -28 -7 -75 -40 -155 -110 -76 -66 -128 -104 -153 -111 -57 -15 -319 -69
-337 -69 -13 0 -21 20 -33 78 -73 338 -237 612 -453 757 -203 137 -425 147
-609 27 -63 -41 -181 -154 -190 -182 -3 -9 5 -40 17 -68 l23 -52 49 66 c56 76
128 136 206 173 50 24 66 26 180 26 115 0 130 -2 182 -27 168 -78 282 -197
388 -403 57 -112 111 -271 141 -420 11 -55 22 -101 24 -103 2 -2 68 10 147 26
79 17 188 40 242 52 55 11 107 26 115 32 9 7 59 54 111 105 l96 94 414 165
c268 107 421 174 432 188 76 93 169 255 234 410 36 85 40 106 10 53z"/>
<path d="M3375 1963 c196 -41 361 -194 435 -405 36 -102 47 -294 20 -338 -11
-17 -181 100 -174 120 16 44 15 111 -1 161 -23 69 -110 159 -171 177 -70 21
-74 19 -74 -40 0 -57 -8 -98 -19 -98 -6 0 -52 286 -51 319 0 10 14 12 58 9 69
-5 173 -51 219 -96 41 -41 56 -42 17 -1 -76 80 -216 149 -304 149 -176 0 -307
-197 -270 -407 29 -167 124 -325 250 -413 20 -14 4 6 -36 46 -92 91 -97 106
-51 152 l35 35 46 -40 c46 -40 125 -73 177 -73 26 0 109 27 109 36 0 2 -25 42
-56 89 -31 48 -53 89 -49 93 3 4 76 -64 161 -150 172 -176 168 -165 95 -231
-51 -46 -64 -53 -136 -67 -172 -34 -398 95 -496 283 -18 36 -35 64 -37 62 -9
-8 73 -149 120 -208 124 -154 265 -225 426 -215 156 10 262 79 322 209 156
339 -162 855 -524 848 -33 -1 -52 -3 -41 -6z m-62 -198 c27 -76 27 -81 10 -90
-10 -5 -34 -26 -54 -45 -46 -45 -67 -123 -50 -186 l11 -42 77 25 c42 13 83 23
92 21 8 -2 -42 -32 -112 -68 -95 -49 -129 -62 -138 -53 -21 21 -49 146 -49
218 0 88 21 168 58 220 31 45 88 87 111 83 10 -2 27 -35 44 -83z"/>
<path d="M2358 1673 c7 -3 16 -2 19 1 4 3 -2 6 -13 5 -11 0 -14 -3 -6 -6z"/>
<path d="M2408 1663 c6 -2 18 -2 25 0 6 3 1 5 -13 5 -14 0 -19 -2 -12 -5z"/>
<path d="M2475 1650 c17 -4 41 -8 55 -8 22 0 22 1 -5 8 -16 4 -41 8 -55 8 -22
0 -22 -1 5 -8z"/>
<path d="M2744 1594 c104 -24 191 -42 193 -41 1 2 -3 10 -10 19 -8 10 -66 24
-172 42 -226 37 -229 31 -11 -20z"/>
</g>
</svg>
