<?xml version="1.0" standalone="no"?>
<!DOCTYPE svg PUBLIC "-//W3C//DTD SVG 20010904//EN"
 "http://www.w3.org/TR/2001/REC-SVG-20010904/DTD/svg10.dtd">
<svg version="1.0" xmlns="http://www.w3.org/2000/svg"
 width="500.000000pt" height="75.000000pt" viewBox="0 0 500.000000 75.000000"
 preserveAspectRatio="xMidYMid meet">

<g transform="translate(0.000000,75.000000) scale(0.100000,-0.100000)"
fill="#fff" stroke="none">
<path d="M143 635 c-36 -15 -53 -41 -53 -80 0 -38 25 -75 77 -113 32 -25 43
-39 41 -55 -4 -30 -42 -30 -46 1 -3 18 -10 22 -38 22 -28 0 -34 -4 -34 -20 0
-29 27 -78 49 -90 40 -21 87 -12 115 21 47 56 29 124 -49 180 -33 24 -45 39
-43 53 4 29 38 34 45 7 4 -16 13 -21 39 -21 38 0 43 14 20 59 -14 26 -53 51
-79 51 -7 -1 -26 -7 -44 -15z"/>
<path d="M340 470 l0 -180 245 0 245 0 0 35 0 35 -210 0 -210 0 0 45 0 44 158
3 157 3 3 33 3 32 -160 0 -161 0 0 30 0 30 211 0 210 0 -3 33 -3 32 -242 3
-243 2 0 -180z"/>
<path d="M890 470 l0 -180 35 0 35 0 0 60 0 60 81 0 80 0 78 -61 c76 -58 80
-60 131 -57 l54 3 -72 54 c-40 30 -72 58 -72 62 0 3 17 9 38 13 55 8 93 52 94
107 1 91 -77 119 -335 119 l-147 0 0 -180z m373 91 c16 -6 27 -18 27 -30 0
-39 -26 -46 -181 -50 l-149 -3 0 52 0 53 138 -5 c75 -3 149 -11 165 -17z"/>
<path d="M1453 636 c3 -7 58 -88 123 -180 l118 -166 42 0 41 0 122 174 c66 95
121 177 121 180 0 4 -17 6 -37 4 -36 -3 -43 -10 -144 -150 l-106 -146 -107
149 c-104 144 -108 149 -143 149 -26 0 -34 -4 -30 -14z"/>
<path d="M2080 470 l0 -180 35 0 35 0 0 180 0 180 -35 0 -35 0 0 -180z"/>
<path d="M2396 633 c-9 -27 -66 -314 -66 -330 0 -8 12 -13 34 -13 31 0 34 3
40 35 6 28 11 35 30 35 24 0 36 -17 36 -51 0 -16 7 -19 40 -19 27 0 38 4 35
13 -2 6 -18 80 -35 162 -42 199 -36 185 -75 185 -23 0 -35 -5 -39 -17z m41
-195 c-3 -7 -5 -2 -5 12 0 14 2 19 5 13 2 -7 2 -19 0 -25z"/>
<path d="M2605 600 c-9 -63 2 -176 21 -211 18 -36 66 -75 110 -89 22 -8 74
-11 133 -8 111 4 154 23 193 85 19 31 23 54 26 155 l4 118 -36 0 -36 0 -1 -92
c0 -118 -13 -158 -59 -180 -44 -23 -178 -25 -219 -4 -50 26 -56 42 -61 160
l-5 111 -31 3 c-31 3 -32 2 -39 -48z"/>
<path d="M3150 631 c0 -11 -3 -26 -6 -35 -5 -14 8 -16 110 -16 l116 0 0 -145
0 -145 35 0 35 0 0 145 0 145 110 0 110 0 0 35 0 35 -255 0 c-245 0 -255 -1
-255 -19z"/>
<path d="M3918 640 c-65 -11 -148 -58 -175 -99 -28 -42 -30 -105 -5 -144 45
-68 139 -107 257 -107 171 0 300 91 280 197 -9 49 -67 109 -128 132 -63 23
-165 33 -229 21z m172 -76 c57 -17 120 -69 120 -99 0 -28 -64 -81 -117 -96
-70 -20 -159 -16 -221 11 -119 51 -109 136 20 181 66 23 128 24 198 3z"/>
<path d="M4510 644 c-14 -2 -44 -7 -67 -10 -119 -15 -143 -142 -35 -186 15 -6
90 -13 167 -16 143 -5 175 -11 175 -38 0 -24 -45 -34 -153 -34 -100 1 -178 17
-185 40 -2 5 -19 10 -38 10 -43 0 -46 -25 -8 -64 39 -38 111 -56 232 -56 117
0 171 12 203 46 29 31 28 88 -1 120 -33 34 -69 42 -220 47 -143 5 -170 11
-170 33 0 26 52 36 181 32 104 -2 130 -6 146 -20 24 -22 83 -24 83 -4 0 26
-48 72 -89 85 -44 13 -181 22 -221 15z"/>
<path d="M4829 288 c-7 -13 -16 -26 -21 -29 -5 -3 -3 -9 6 -12 10 -4 21 1 28
13 10 15 24 20 60 20 27 0 48 -2 48 -3 0 -2 -17 -35 -38 -73 l-37 -69 -985 -5
c-735 -4 -923 -7 -740 -12 135 -5 580 -11 990 -14 l745 -6 19 34 c10 18 36 66
58 106 l40 72 -81 0 c-73 0 -81 -2 -92 -22z"/>
<path d="M2711 196 c5 -5 1446 -25 1859 -27 224 0 255 1 258 15 3 14 -99 16
-1059 16 -584 0 -1060 -2 -1058 -4z"/>
</g>
</svg>
